# xmcd CD database file
#
# Track frame offsets:
#	150
#	20024
#	36797
#	59653
#	74837
#	106303
#	124331
#	141506
#	162468
#	184012
#	202530
#	222363
#	241108
#	269750
#
# Disc length: 4307 seconds
#
# Revision: 0
# Processed by: cddbd v1.5.1PL0 Copyright (c) Steve Scherf et al.
# Submitted via: CDex 1.51
#
DISCID=de10d10e
DTITLE=Delta Blue - Heaven
DYEAR=2005
DGENRE=Blues
TTITLE0=Preaching Blues
TTITLE1=Black Water
TTITLE2=Impossible Love
TTITLE3=32-20
TTITLE4=Texas Flood
TTITLE5=The Tequila Suicides
TTITLE6=Papa told me bout that woman
TTITLE7=One bourbon, one scotch, one beer
TTITLE8=Hoochie Coochie Man
TTITLE9=I'll always be in love with you
TTITLE10=Troublesome
TTITLE11=No More
TTITLE12=Ain't going to heaven
TTITLE13=Ain't going to heaven music video
EXTD=YEAR: 2005
EXTT0=
EXTT1=
EXTT2=
EXTT3=
EXTT4=
EXTT5=
EXTT6=
EXTT7=
EXTT8=
EXTT9=
EXTT10=
EXTT11=
EXTT12=
EXTT13=
PLAYORDER=
